:SAMPLES-PER-SECOND 30
:FULLY-SPECIFIED
:DEGREES
1
root  12.7466 40.0291 0.0409961 -120.679 -88.3781 116.19
RightUpLeg  4.42877 -8.49677 -5.94427
RightLeg  3.83701 8.80289 -0.60237
RightFoot  -4.06525 -0.158167 1.946
RightToes  2.21189e-009 0 -3.6325e-017
Spine  3.67219 -0.474496 2.09591
Spine1  4.86915 0.275997 -2.96763
HEad  -8.83798 -7.70901 -3.47394
LeftShoulder1  0.191505 1.50592 -0.851444
LeftArm  -23.2464 -1.30893 -19.1515
LeftForeArm  -0.507901 2.68961 3.45338
LeftHand  -0.0610844 2.97978 2.31272
RightShoulder  0.136287 -1.72617 -1.00682
RightArm  -12.0927 1.88094 13.9137
RightForeArm  -5.04274 -2.67867 -3.59399
RightHand  -0.242394 6.23136 -2.75494
LeftUpLeg  4.05442 6.98812 3.90178
LeftLeg  1.79779 -3.19853 0.620639
LeftFoot  -1.20635 0.122545 -1.35932
LeftToes  -3.01956e-010 3.07132e-011 1.04116e-011
2
root  12.7443 40.0291 0.0407886 -121.13 -88.3707 116.657
RightUpLeg  4.39479 -8.47835 -5.92899
RightLeg  3.87251 8.80179 -0.613219
RightFoot  -4.06605 -0.157217 1.93127
RightToes  2.21189e-009 0 -3.6325e-017
Spine  3.61918 -0.464736 2.08881
Spine1  4.95828 0.285625 -2.96024
HEad  -8.78662 -7.88528 -3.52778
LeftShoulder1  0.191505 1.49338 -0.846248
LeftArm  -23.4495 -1.35714 -19.1113
LeftForeArm  0.527525 2.85117 3.62904
LeftHand  -0.0512383 2.1623 1.43103
RightShoulder  0.136285 -1.74266 -1.00669
RightArm  -12.098 1.89155 13.8902
RightForeArm  -5.01479 -2.67148 -3.59239
RightHand  -0.235908 6.34355 -2.67
LeftUpLeg  4.03612 7.00984 3.91577
LeftLeg  1.81909 -3.21215 0.593606
LeftFoot  -1.21839 0.119754 -1.31595
LeftToes  -3.01956e-010 3.07132e-011 1.04116e-011
3
root  12.7397 40.0291 0.0416346 -120.695 -88.3825 116.24
RightUpLeg  4.4101 -8.47921 -5.93066
RightLeg  3.82891 8.7745 -0.613507
RightFoot  -4.09727 -0.16095 1.98919
RightToes  2.21189e-009 0 -3.6325e-017
Spine  3.66074 -0.45975 2.06
Spine1  4.86361 0.273468 -2.89601
HEad  -8.71044 -7.86464 -3.41704
LeftShoulder1  0.191505 1.4474 -0.902565
LeftArm  -23.4259 -1.35859 -19.0493
LeftForeArm  0.602874 2.87211 3.62661
LeftHand  -0.039188 2.1365 1.00586
RightShoulder  0.136288 -1.73828 -1.04128
RightArm  -12.1676 1.90379 13.896
RightForeArm  -4.89992 -2.74696 -3.63314
RightHand  -0.236598 6.10111 -2.71992
LeftUpLeg  4.00504 6.99221 3.90343
LeftLeg  1.85066 -3.19365 0.610091
LeftFoot  -1.19763 0.115206 -1.24525
LeftToes  -3.01956e-010 3.07132e-011 1.04116e-011
4
root  12.7306 40.0291 0.0463561 -122.279 -88.3664 117.807
RightUpLeg  4.4293 -8.50223 -5.95144
RightLeg  3.84354 8.85195 -0.584587
RightFoot  -4.108 -0.160616 1.984
RightToes  2.21189e-009 0 -3.6325e-017
Spine  3.72506 -0.444339 2.16333
Spine1  4.77107 0.314578 -3.01982
HEad  -8.53556 -7.90708 -3.54671
LeftShoulder1  0.191169 1.41106 -0.792334
LeftArm  -23.3716 -1.28689 -19.1199
LeftForeArm  0.376026 2.85431 3.59295
LeftHand  -0.0470331 2.245 1.31687
RightShoulder  0.136287 -1.74217 -1.03428
RightArm  -12.0963 1.8914 13.9101
RightForeArm  -4.96344 -2.78161 -3.61319
RightHand  -0.248938 6.16757 -2.83207
LeftUpLeg  4.04807 6.9993 3.9064
LeftLeg  1.83947 -3.17115 0.619176
LeftFoot  -1.19066 0.115695 -1.25286
LeftToes  -3.01956e-010 3.07132e-011 1.04116e-011
5
root  12.7224 40.0301 0.0484239 -124.102 -88.3456 119.645
RightUpLeg  4.45865 -8.47057 -5.93974
RightLeg  3.76555 8.85085 -0.615649
RightFoot  -4.21803 -0.178952 2.26849
RightToes  2.21189e-009 0 -3.6325e-017
Spine  3.75226 -0.426652 2.19211
Spine1  4.68314 0.331008 -3.03665
HEad  -8.33028 -7.82666 -3.5465
LeftShoulder1  0.1888 1.42777 -0.899343
LeftArm  -23.2934 -1.31994 -19.0446
LeftForeArm  0.474704 2.83396 3.53113
LeftHand  -0.0505357 2.26225 1.36559
RightShoulder  0.136782 -1.68987 -1.05225
RightArm  -12.0417 1.89611 13.9195
RightForeArm  -5.02042 -2.82259 -3.59328
RightHand  -0.256643 6.19969 -2.90148
LeftUpLeg  4.06125 7.02534 3.91866
LeftLeg  1.83077 -3.10917 0.607708
LeftFoot  -1.24717 0.114901 -1.2405
LeftToes  -3.01956e-010 3.07132e-011 1.04116e-011
6
root  12.7167 40.033 0.0522807 -124.68 -88.3265 120.262
RightUpLeg  4.37617 -8.46448 -5.93026
RightLeg  3.83846 8.90096 -0.614824
RightFoot  -4.08717 -0.161835 2.00292
RightToes  2.21189e-009 0 -3.6325e-017
Spine  3.78231 -0.410722 2.28249
Spine1  4.57842 0.372639 -3.1472
HEad  -8.21288 -7.93117 -3.61629
LeftShoulder1  0.187251 1.41856 -0.915491
LeftArm  -23.1992 -1.39696 -19.0632
LeftForeArm  0.293612 2.77868 3.44912
LeftHand  -0.0543297 2.40548 1.39852
RightShoulder  0.138501 -1.67989 -1.02294
RightArm  -11.9346 1.8425 13.9206
RightForeArm  -5.26282 -2.8183 -3.5462
RightHand  -0.28279 6.50622 -3.09821
LeftUpLeg  4.06283 7.02293 3.90688
LeftLeg  1.7747 -3.10593 0.593885
LeftFoot  -1.17511 0.108641 -1.1432
LeftToes  -3.01956e-010 3.07132e-011 1.04116e-011
7
root  12.713 40.0319 0.0557583 -124.68 -88.312 120.261
RightUpLeg  4.37035 -8.49613 -5.9649
RightLeg  3.87266 8.94068 -0.588487
RightFoot  -4.11374 -0.157895 1.94178
RightToes  2.21189e-009 0 -3.6325e-017
Spine  3.83134 -0.406857 2.32158
Spine1  4.55066 0.393063 -3.21704
HEad  -8.2766 -7.93482 -3.57776
LeftShoulder1  0.190295 1.4379 -0.841661
LeftArm  -22.9686 -1.38944 -19.1355
LeftForeArm  -0.540146 2.62301 3.27022
LeftHand  -0.0588261 2.85961 1.61104
RightShoulder  0.139799 -1.70783 -0.928119
RightArm  -11.7711 1.92085 13.8448
RightForeArm  -5.19475 -2.79586 -3.47465
RightHand  -0.264171 6.36883 -2.94651
LeftUpLeg  4.07071 7.01849 3.89417
LeftLeg  1.78165 -3.07882 0.591153
LeftFoot  -1.22065 0.114645 -1.23653
LeftToes  -3.01956e-010 3.07132e-011 1.04116e-011
8
root  12.7105 40.0316 0.0620624 -123.354 -88.3581 118.965
RightUpLeg  4.31224 -8.51568 -5.96013
RightLeg  3.94089 8.88757 -0.561876
RightFoot  -4.0898 -0.151824 1.8476
RightToes  2.21189e-009 0 -3.6325e-017
Spine  3.95545 -0.41512 2.48108
Spine1  4.33224 0.421792 -3.37918
HEad  -8.22322 -7.88377 -3.49006
LeftShoulder1  0.198333 1.33458 -0.784822
LeftArm  -22.8985 -1.433 -19.1812
LeftForeArm  -0.522152 2.69277 3.23568
LeftHand  -0.0586552 2.68345 1.7564
RightShoulder  0.140974 -1.73326 -0.749113
RightArm  -11.7031 1.97272 13.6905
RightForeArm  -5.1767 -2.88522 -3.45457
RightHand  -0.252363 6.75753 -2.75682
LeftUpLeg  4.03794 7.00699 3.89614
LeftLeg  1.75651 -3.12587 0.590806
LeftFoot  -1.2062 0.110062 -1.16529
LeftToes  -3.01956e-010 3.07132e-011 1.04116e-011
